<?xml version="1.0" encoding="utf-8"?> <svg viewBox="0.281 0.0465 270 40.0005" width="270" height="40.0005" xmlns="http://www.w3.org/2000/svg"> <defs> <style> .cls-1 { fill: #01b4ff; fill-rule: evenodd; } </style> </defs> <path id="лого" class="cls-1" d="M 247.356 10.611 L 255.451 23.686 L 263.541 10.611 L 263.813 10.171 L 270.281 10.171 L 270.281 29.983 L 265.35 29.983 L 265.35 16.907 L 257.173 29.562 L 256.9 29.983 L 254 29.983 L 253.728 29.562 L 245.581 16.947 L 245.581 29.983 L 240.621 29.983 L 240.621 10.171 L 247.081 10.171 L 247.356 10.611 Z M 225.927 29.983 L 225.9 29.983 C 224.05 29.983 222.472 29.92 221.166 29.796 C 220.753 29.758 220.341 29.71 219.93 29.651 C 219.252 29.559 218.583 29.412 217.93 29.211 L 217.919 29.211 C 217.681 29.134 217.447 29.043 217.219 28.94 C 217 28.841 216.788 28.728 216.584 28.602 C 215.541 27.965 214.778 26.958 214.448 25.782 L 214.448 25.769 C 214.396 25.594 214.353 25.416 214.318 25.236 C 214.279 25.036 214.246 24.827 214.218 24.623 C 214.044 23.039 213.969 21.446 213.994 19.854 C 213.994 18.394 214.027 17.176 214.094 16.199 C 214.126 15.433 214.236 14.673 214.423 13.93 L 214.423 13.923 C 214.494 13.692 214.58 13.466 214.681 13.247 C 214.777 13.03 214.889 12.821 215.014 12.621 C 215.697 11.574 216.733 10.808 217.933 10.462 C 218.997 10.146 220.093 9.945 221.2 9.862 C 222.533 9.732 224.111 9.668 225.932 9.668 C 227.785 9.668 229.365 9.73 230.672 9.854 C 231.771 9.934 232.857 10.132 233.914 10.445 C 234.15 10.521 234.381 10.612 234.606 10.716 C 234.826 10.815 235.039 10.929 235.244 11.057 C 236.289 11.701 237.056 12.712 237.395 13.893 C 237.592 14.651 237.711 15.427 237.75 16.21 C 237.822 17.188 237.858 18.399 237.858 19.842 C 237.858 21.284 237.825 22.494 237.758 23.472 C 237.725 24.238 237.614 25 237.426 25.744 C 237.196 26.56 236.76 27.304 236.16 27.905 C 235.535 28.507 234.777 28.952 233.947 29.205 L 233.936 29.205 C 233.695 29.282 233.438 29.352 233.165 29.415 C 232.892 29.477 232.599 29.535 232.286 29.587 C 230.179 29.882 228.053 30.012 225.926 29.977 L 225.927 29.983 Z M 225.927 25.276 C 227.455 25.295 228.984 25.228 230.505 25.076 C 231.106 25.059 231.697 24.92 232.242 24.667 C 232.494 24.296 232.642 23.865 232.67 23.418 C 232.845 22.236 232.921 21.042 232.898 19.848 C 232.92 18.647 232.843 17.446 232.669 16.258 C 232.641 15.81 232.497 15.377 232.251 15.002 C 231.705 14.753 231.114 14.617 230.515 14.602 C 228.99 14.449 227.457 14.382 225.925 14.402 C 224.391 14.382 222.858 14.449 221.332 14.602 C 220.733 14.617 220.144 14.755 219.601 15.008 C 219.577 15.032 219.556 15.059 219.539 15.089 C 219.484 15.184 219.439 15.284 219.404 15.389 C 219.031 16.845 218.88 18.349 218.957 19.851 C 218.934 21.041 219.011 22.232 219.186 23.411 C 219.214 23.86 219.362 24.293 219.615 24.666 C 219.658 24.697 219.705 24.722 219.755 24.741 C 219.897 24.797 220.042 24.843 220.191 24.878 C 222.083 25.212 224.005 25.346 225.925 25.278 L 225.927 25.276 Z M 194.505 19.847 C 194.505 22.685 194.714 24.291 195.131 24.667 C 195.169 24.698 195.212 24.723 195.258 24.743 C 195.378 24.796 195.501 24.84 195.628 24.875 C 197.256 25.207 198.919 25.341 200.58 25.275 C 202.171 25.275 203.425 25.242 204.335 25.175 C 204.845 25.164 205.352 25.094 205.846 24.965 C 205.887 24.939 205.925 24.91 205.96 24.878 C 206.012 24.829 206.059 24.774 206.099 24.715 C 206.487 23.942 206.653 23.076 206.579 22.215 L 206.579 21.293 L 211.539 21.293 L 211.539 22.224 C 211.573 23.568 211.404 24.909 211.039 26.204 C 210.98 26.39 210.918 26.562 210.854 26.717 C 210.558 27.525 210.012 28.219 209.295 28.697 L 209.289 28.697 C 209.052 28.842 208.803 28.967 208.544 29.068 C 208.256 29.181 207.961 29.277 207.661 29.356 C 205.334 29.844 202.957 30.052 200.58 29.978 C 198.727 30.008 196.876 29.868 195.049 29.56 C 193.805 29.395 192.628 28.905 191.634 28.14 C 190.783 27.269 190.217 26.16 190.011 24.96 C 189.663 23.276 189.505 21.56 189.54 19.842 C 189.506 18.118 189.663 16.396 190.008 14.708 C 190.21 13.504 190.769 12.389 191.614 11.508 C 192.605 10.733 193.786 10.238 195.033 10.075 C 196.865 9.764 198.722 9.624 200.58 9.657 L 200.6 9.657 C 202.4 9.634 204.2 9.731 205.987 9.947 C 206.257 9.985 206.487 10.019 206.663 10.047 C 207.591 10.172 208.489 10.47 209.308 10.925 L 209.329 10.936 C 209.741 11.204 210.094 11.555 210.365 11.966 C 210.66 12.413 210.889 12.901 211.045 13.415 C 211.411 14.715 211.579 16.064 211.545 17.415 L 211.545 18.338 L 206.585 18.338 L 206.585 17.431 C 206.585 15.873 206.404 15.003 206.042 14.821 C 205.508 14.638 204.949 14.537 204.385 14.521 C 203.46 14.437 202.194 14.396 200.585 14.397 C 197.385 14.397 195.566 14.597 195.127 14.997 C 194.889 15.379 194.752 15.816 194.727 16.266 C 194.561 17.454 194.489 18.653 194.51 19.853 L 194.505 19.847 Z M 168.943 10.171 L 187.066 10.171 L 187.066 14.878 L 172.981 14.878 L 172.981 17.597 L 186.581 17.597 L 186.581 22.304 L 172.981 22.304 L 172.981 25.274 L 187.063 25.274 L 187.063 29.981 L 168.023 29.981 L 168.023 10.172 L 168.94 10.172 L 168.943 10.171 Z M 148.422 10.171 L 152.436 10.171 L 152.436 25.271 L 165.808 25.271 L 165.808 29.971 L 147.508 29.971 L 147.508 10.171 L 148.425 10.171 L 148.422 10.171 Z M 126.738 10.171 L 144.861 10.171 L 144.861 14.878 L 130.774 14.878 L 130.774 17.597 L 144.374 17.597 L 144.374 22.304 L 130.781 22.304 L 130.781 25.274 L 144.861 25.274 L 144.861 29.981 L 125.821 29.981 L 125.821 10.172 L 126.738 10.172 L 126.738 10.171 Z M 103.885 10.171 L 123.536 10.171 L 123.536 14.878 L 115.743 14.878 L 115.743 29.978 L 110.781 29.978 L 110.781 14.878 L 102.966 14.878 L 102.966 10.171 L 103.881 10.171 M 60.84 23.471 C 60.821 23.857 60.88 24.244 61.013 24.608 C 61.064 24.744 61.166 24.856 61.298 24.921 C 61.852 25.076 62.423 25.161 62.998 25.174 C 63.942 25.24 65.217 25.274 66.824 25.274 L 66.865 25.274 C 68.439 25.274 69.716 25.238 70.695 25.166 C 70.839 25.156 70.983 25.144 71.127 25.132 C 71.551 25.111 71.972 25.038 72.379 24.916 C 72.505 24.849 72.601 24.737 72.649 24.603 C 72.782 24.237 72.841 23.849 72.823 23.461 L 72.823 9.916 L 77.781 9.916 L 77.781 23.48 C 77.81 24.582 77.676 25.683 77.381 26.747 C 77.328 26.912 77.281 27.052 77.23 27.167 C 76.988 27.826 76.527 28.383 75.924 28.745 C 74.864 29.287 73.705 29.611 72.517 29.698 C 70.626 29.907 68.725 30.002 66.823 29.98 L 66.796 29.98 C 64.926 29.999 63.057 29.921 61.196 29.745 C 60.754 29.698 60.314 29.635 59.876 29.556 C 59.202 29.457 58.55 29.248 57.944 28.939 C 57.161 28.451 56.587 27.692 56.331 26.807 C 56.002 25.726 55.85 24.599 55.881 23.47 L 55.881 9.916 L 60.842 9.916 L 60.842 23.469 L 60.84 23.471 Z M 80.404 13.958 L 80.404 10.172 L 100.695 10.172 L 100.695 14.247 L 100.364 14.525 L 87.581 25.276 L 100.695 25.276 L 100.695 29.984 L 79.82 29.984 L 79.82 25.906 L 80.154 25.627 L 93.091 14.88 L 80.408 14.88 L 80.408 13.957 M 0.281 24.547 C 3.745 23.529 4.809 19.144 2.196 16.652 C 1.655 16.136 0.998 15.757 0.281 15.547 C 3.261 17.807 3.261 22.286 0.281 24.547 Z M 1.94 26.933 C 7.243 26.933 10.558 21.193 7.907 16.6 C 6.524 14.204 3.842 12.867 1.096 13.207 C 6.359 13.863 8.938 19.971 5.737 24.201 C 4.615 25.684 2.941 26.65 1.096 26.881 C 1.376 26.915 1.658 26.932 1.94 26.933 Z M 4.352 30.921 C 12.725 30.921 17.958 21.856 13.772 14.605 C 11.829 11.24 8.238 9.167 4.352 9.167 C 3.907 9.166 3.462 9.194 3.02 9.251 C 11.329 10.292 15.394 19.938 10.337 26.613 C 8.567 28.949 5.929 30.473 3.02 30.838 C 3.462 30.892 3.907 30.92 4.352 30.92 M 19.781 40.047 C 35.177 40.003 44.752 23.309 37.016 9.997 C 33.001 3.09 25.261 -0.766 17.329 0.191 C 32.612 2.104 40.092 19.844 30.794 32.123 C 27.537 36.423 22.682 39.226 17.329 39.897 C 18.142 39.996 18.961 40.046 19.781 40.047 Z M 7.834 34.668 C 19.091 34.672 26.133 22.489 20.508 12.737 C 17.572 7.646 11.874 4.808 6.042 5.531 C 17.214 6.927 22.684 19.895 15.889 28.871 C 13.507 32.017 9.956 34.067 6.042 34.557 C 6.636 34.63 7.235 34.667 7.834 34.668 Z M 12.725 37.92 C 26.486 37.92 35.086 23.023 28.206 11.106 C 25.013 5.575 19.111 2.168 12.725 2.168 C 11.992 2.168 11.261 2.214 10.534 2.304 C 24.19 4.013 30.875 19.866 22.566 30.838 C 19.656 34.681 15.317 37.186 10.534 37.785 C 11.261 37.874 11.992 37.919 12.725 37.92" style="fill: rgb(255, 255, 255);" transform="matrix(1, 0, 0, 1, 1.4210854715202004e-14, 0)"/> </svg>